<svg version="1.1" xmlns="http://www.w3.org/2000/svg" xmlns:xlink="http://www.w3.org/1999/xlink" x="0px" y="0px" width="300px" height="300px" viewBox="0 0 300 300" enable-background="new 0 0 300 300" xml:space="preserve">
<g>
		<rect x="-15" y="-15" fill="#FFBE98" width="330" height="330"/>
		<g>
			<g>
				<path fill="#FFFFFF" d="M14.46,207.268V192.25c1.384-7.243,3.921-14.188,7.613-20.831c2.952-5.213,7.727-11.811,14.325-19.792
					l2.699-3.253c5.028-6.135,8.305-10.588,9.827-13.356c1.983-3.552,2.976-8.143,2.976-13.772c0-4.152-0.669-7.612-2.007-10.381
					c-2.076-4.291-5.353-6.436-9.827-6.436c-3.83,0-7.174,1.5-10.035,4.499c-2.169,2.308-4.337,5.859-6.505,10.657l-10.796-8.789
					c2.307-5.536,5.352-10.011,9.135-13.426c5.49-4.936,11.81-7.405,18.962-7.405c9.181,0,16.355,3.415,21.523,10.242
					c4.152,5.445,6.229,12.227,6.229,20.347c0,8.028-1.938,15.11-5.813,21.246c-1.154,1.846-4.522,6.044-10.104,12.595
					c-0.692,0.83-1.638,1.984-2.837,3.46l-3.391,4.083c-5.029,6.137-8.882,11.973-11.558,17.51
					c-2.491,5.214-3.784,9.158-3.875,11.834h38.271v15.986H14.46z"/>
				<path fill="#FFFFFF" d="M112.871,89.618c9.319,0,16.447,5.052,21.384,15.156c4.983,10.289,7.474,25.375,7.474,45.26
					c0,18.961-2.284,33.565-6.851,43.807c-4.891,11.025-12.25,16.539-22.077,16.539c-9.32,0-16.425-4.982-21.315-14.947
					c-5.076-10.242-7.612-25.306-7.612-45.191c0-21.13,2.768-36.817,8.305-47.06C97.068,94.141,103.966,89.618,112.871,89.618z
					 M112.732,103.944c-7.889,0-11.834,15.387-11.834,46.16c0,30.451,3.967,45.676,11.903,45.676
					c7.935,0,11.903-15.156,11.903-45.468C124.705,119.4,120.713,103.944,112.732,103.944z"/>
				<path fill="#FFFFFF" d="M156.193,207.268V192.25c1.384-7.243,3.92-14.188,7.612-20.831c2.952-5.213,7.728-11.811,14.325-19.792
					l2.699-3.253c5.028-6.135,8.305-10.588,9.827-13.356c1.983-3.552,2.976-8.143,2.976-13.772c0-4.152-0.669-7.612-2.007-10.381
					c-2.076-4.291-5.353-6.436-9.827-6.436c-3.83,0-7.174,1.5-10.035,4.499c-2.168,2.308-4.337,5.859-6.505,10.657l-10.796-8.789
					c2.307-5.536,5.352-10.011,9.135-13.426c5.49-4.936,11.811-7.405,18.963-7.405c9.18,0,16.355,3.415,21.522,10.242
					c4.152,5.445,6.229,12.227,6.229,20.347c0,8.028-1.938,15.11-5.813,21.246c-1.154,1.846-4.521,6.044-10.104,12.595
					c-0.692,0.83-1.639,1.984-2.838,3.46l-3.391,4.083c-5.029,6.137-8.883,11.973-11.558,17.51
					c-2.491,5.214-3.784,9.158-3.876,11.834h38.271v15.986H156.193z"/>
				<path fill="#FFFFFF" d="M257.787,91.764h18.408v76.264h11.072v14.326h-11.072v24.914H260.9v-24.914h-38.824v-14.603
					L257.787,91.764z M261.592,168.027v-25.951c0-8.812,0.369-20.185,1.107-34.119h-0.553l-0.623,1.938
					c-3.23,10.197-5.998,17.716-8.305,22.561l-16.955,35.571H261.592z"/>
			</g>
		</g>
	</g>
</svg>
