<svg version="1.1" id="レイヤー_2" xmlns="http://www.w3.org/2000/svg" xmlns:xlink="http://www.w3.org/1999/xlink" x="0px"
	 y="0px" width="300px" height="300px" viewBox="0 0 300 300" enable-background="new 0 0 300 300" xml:space="preserve">
<g>
	<path fill="#B52328" d="M150,61.401c-11-25.582-36.214-43.509-65.79-43.509c-39.548,0-71.563,31.523-71.563,71.072
		c0,0.192,0.06,0.036,0.06,0.036h-0.014C13.075,122,15,193.59,150,282.004V61.401z"/>
	<path fill="#B52328" d="M150,61.401c11-25.582,36.152-43.509,65.729-43.509c39.547,0,71.532,31.523,71.532,71.072
		c0,0.192-0.092,0.036-0.092,0.036h0.015C286.802,122,285,193.59,150,282.004V61.401z"/>
</g>
</svg>
